/* XPM */
static char *yubioath[] = {
/* columns rows colors chars-per-pixel */
"128 128 80 1 ",
"  c None",
". c #333333",
"X c #363834",
"o c #393C33",
"O c #373738",
"+ c #3A3B3B",
"@ c #3E4334",
"# c #404635",
"$ c #434A34",
"% c #475035",
"& c #4A5435",
"* c #4E5A36",
"= c #505E36",
"- c #546436",
"; c #596B36",
": c #5E7237",
"> c #617637",
", c #637A37",
"< c #677F38",
"1 c #3F4040",
"2 c #444445",
"3 c #474848",
"4 c #4B4B4C",
"5 c #4F4F50",
"6 c #4F5051",
"7 c #545456",
"8 c #565758",
"9 c #575859",
"0 c #5B5C5E",
"q c #5E5F61",
"w c #5F6061",
"e c #636466",
"r c #66676A",
"t c #67686A",
"y c #6A6B6C",
"u c #6D6E71",
"i c #6F7072",
"p c #717274",
"a c #757679",
"s c #77797B",
"d c #7A7B7D",
"f c #688137",
"g c #6A8438",
"h c #6E8A38",
"j c #718D39",
"k c #739239",
"l c #7A9B39",
"z c #7EA139",
"x c #81A63A",
"c c #86AC3A",
"v c #8CB53B",
"b c #8FB93B",
"n c #91BD3B",
"m c #95C33C",
"M c #98C73C",
"N c #9ACA3C",
"B c #7E7F81",
"V c #7E8083",
"C c #828385",
"Z c #848689",
"A c #87898B",
"S c #898B8D",
"D c #8C8E91",
"F c #8F9093",
"G c #929496",
"H c #939598",
"J c #97999B",
"K c #9A9C9E",
"L c #9E9FA1",
"P c #9EA0A2",
"I c #A2A3A4",
"U c #A7A7A8",
"Y c #ABACAD",
"T c #AEAFB0",
"R c #AFB0B1",
"E c #B3B3B4",
"W c #B7B7B8",
"Q c #B7B8B8",
"! c #BCBCBC",
"~ c #C0C0C0",
/* pixels */
"                                                        HHHHHHHHHHHHHHHH                                                        ",
"                                                  HHHHHHHHHHHHHHHHHHHHHHHHHHHH                                                  ",
"                                              HHHHHHHHHHHHHHHHHHHHHHHHHHHHHHHHHHHH                                              ",
"                                           HHHHHHHHHHHHHHHHHHHHHHHHHHHHHHHHHHHHHHHHHH                                           ",
"                                         HHHHHHHHHHHHHHHHHHHHHHHHHHHHHHHHHHHHHHHHHHHHHHH                                        ",
"                                      HHHHHHHHHHHHHHHHHHHHHHHHHHHHHHHHHHHHHHHHHHHHHHHHHHpr                                      ",
"                                    HHHHHHHHHHHHHHHHHHHHHHHHHHHHHHHHHHHHHHHHHHHHHHHHHHHHeeee                                    ",
"                                  HHHHHHHHHHHHHHHHHHHHHHHHHHHHJIPJHHHHHHHHHHHHHHHHHHHHHseeeeee                                  ",
"                                HHHHHHHHHHHHHHHHHHHHHHHHHHHHHE~~~~RJHHHHHHHHHHHHHHHHHHHreeeeeeee                                ",
"                               HHHHHHHHHHHHHHHHHHHHHHHHHHHHH!~~~~~~!HHHHHHHHHHHHHHHHHHSeeeeeeeeeee                              ",
"                             HHHHHHHHHHHHHHHHHHHHHHHHHHHHHHY~~~~~~~~YHHHHHHHHHHHHHHHHHyeeeeeeeeeeee                             ",
"                           HHHHHHHHHHHHHHHHHHHHHHHHHHHHHHHH~~~~~~~~~!HHHHHHHHHHHHHHHHHeeeeeeeeeeeeeee                           ",
"                          HHHHHHHHHHHHHHHHHHHHHHHHHHHHHHHHK!~~~~~~~~~KHHHHHHHHHHHHHHHseeeeeeeeeeeeeeee                          ",
"                         HHHHHHHHHHHHHHHHHHHHHHHHHHHHHHHHHJ!~~~~~~~~~JHHHHHHHHHHHHHHHeeeeeeeeeeeeeeeeee                         ",
"                       HHHHHHHHHHHHHHHHHHHHHHHHHHHHHHHHHHHH!~~~~~~~~EHHHHHHHHHHHHHHHCeeeeeeeeeeeeeeeeeeee                       ",
"                      HHHHHHHHHHHHHHHHHHHHHHHHHHHHHHHHHHHHHI~~~~~~~~IHHHHHHHHHHHHHHHyeeeeeeeeeeeeeeeeeeeee                      ",
"                     HHHHHHHHHHHHHHHHHHHHHHHHHHHHHHHHHHHHHHHY!~~~~~UHHHHHHHHHHHHHHHDreeeeeeeeeeeeeeeeeeeeee                     ",
"                    HHHHHHHHHHHHHHHHHHHHHHHHHHHHHHHHHHHHHHHHHPE!!ELHHHHHHHHHHHHHHHHpeeeeeeeeeeeeeeeeeeeeeeee                    ",
"                   HHHHHHHHHHHHHHHHHHHHHHHHHHHHHHHHHHHHHHHHHHHHHHHHHHHHHHHHHHHHHHHHeeeeeeeeeeeeeeeeeeeeeeeeee                   ",
"                  HHHHHHHHHHHHHHHHHHHHHHHHHHHHHHHHHHHHHHHHHHHHHHHHHHHHHHHHHHHHHHHHVeeeeeeeeeeeeeeeeeeeeeeeeeee                  ",
"                 HHHHHHHHHHHHHHHHHHHHHHHHHHHHHHHHHHHHHHHHHHHHHHHHHHHHHHHHHHHHHHHHHreeeeeeeeeeeeeeeeeeeeeeeeeeee                 ",
"                HHHHHHHHHHHHHHHHHHHHHHHHHHHHHHHHHHHHHHHHHHHHHHHHHHHHHHHHHHHHHHHHHSeeeeeeeeeeeeeeeeeeeeeeeeeeeeee                ",
"               HHHHHHHHHHHKIPJHHHHHHHHHHHHHHHHHHHHHHHHHHHHHHHHHHHHHHHHHHHHHHHHHHHueeeeeeeeeeeeeeeetsBpeeeeeeeeeee               ",
"              HHHHHHHHHHKE~~~!YHHHHHHHHHHHHHHHHHHHHHHHHHHHHHHHHHHHHHHHHHHHHHHHHHHeeeeeeeeeeeeeeeeH~~~~Ypeeeeeeeeee              ",
"              HHHHHHHHHK!~~~~~~EHHHHHHHHHHHHHHHHHHHHHHHHHHHHHHHHHHHHHHHHHHHHHHHHseeeeeeeeeeeeeeeI~~~~~~Wieeeeeeeee              ",
"             HHHHHHHHHHE~~~~~~~~PHHHHHHHHHHHHHHHHHHHHHHHHHHSVsppiasBAHHHHHHHHHHHeeeeeeeeeeeeeeeC~~~~~~~~Yeeeeeeeeee             ",
"            HHHHHHHHHHL~~~~~~~~~EHHHHHHHHHHHHHHHHHHHHHCy72...........O27yZHHHHHZeeeeeeeeeeeeeeeU~~~~~~~~~peeeeeeeeee            ",
"           HHHHHHHHHHHI~~~~~~~~~!HHHHHHHHHHHHHHHHHHs7+....................+8sHHyeeeeeeeeeeeeeeeE~~~~~~~~~Beeeeeeeeeee           ",
"           HHHHHHHHHHHP~~~~~~~~~!HHHHHHHHHHHHHHHZe+..........................+9qeeeeeeeeeeeeeeeE~~~~~~~~~seeeeeeeeeee           ",
"          HHHHHHHHHHHHH!~~~~~~~~YHHHHHHHHHHHHHC8................................39eeeeeeeeeeeeeK~~~~~~~~!reeeeeeeeeeee          ",
"         HHHHHHHHHHHHHHY~~~~~~~!KHHHHHHHHHHHS7....................................3eeeeeeeeeeeep!~~~~~~~Heeeeeeeeeeeee          ",
"         HHHHHHHHHHHHHHHE~~~~~~IHHHHHHHHHHHy+.......................................4eeeeeeeeeeeB~~~~~~Ieeeeeeeeeeeeeee         ",
"        HHHHHHHHHHHHHHHHHIE!WYKHHHHHHHHHHZ2.........................................OO0eeeeeeeeeeiKRWUBeeeeeeeeeeeeeeeee        ",
"        HHHHHHHHHHHHHHHHHHHHHHHHHHHHHHHHaO............................................O5eeeeeeeeeeeeeeeeeeeeeeeeeeeeeeee        ",
"       HHHHHHHHHHHHHHHHHHHHHHHHHHHHHHHHq................................................2eeeeeeeeeeeeeeeeeeeeeeeeeeeeeeee       ",
"       HHHHHHHHHHHHHHHHHHHHHHHHHHHHHHH7..................................................2eeeeeeeeeeeeeeeeeeeeeeeeeeeeeee       ",
"      HHHHHHHHHHHHHHHHHHHHHHHHHHHHHHF4....................................................1eeeeeeeeeeeeeeeeeeeeeeeeeeeeeee      ",
"      HHHHHHHHHHHHHHHHHHHHHHHHHHHHHH5......................................................1eeeeeeeeeeeeeeeeeeeeeeeeeeeeee      ",
"     HHHHHHHHHHHHHHHHHHHHHHHHHHHHHH8........................................................2eeeeeeeeeeeeeeeeeeeeeeeeeeeeee     ",
"     HHHHHHHHHHHHHHHHHHHHHHHHHHHHH9..........................................................2eeeeeeeeeeeeeeeeeeeeeeeeeeeee     ",
"    HHHHHHHHHHHHHHHHHHHHHHHHHHHHHp............................................................8eeeeeeeeeeeeeeeeeeeeeeeeeeee     ",
"    HHHHHHHHHHHHHHHHHHHHHHHHHHHHAO.................................................O..........Oeeeeeeeeeeeeeeeeeeeeeeeeeeeee    ",
"    HHHHHHHHHHHHHHHHHHHHHHHHHHHH2..........ovvvvvvbvvvvvb;...............ogggggg<ggggg#........Oeeeeeeeeeeeeeeeeeeeeeeeeeeee    ",
"   HHHHHHHHHHHHHHHHHHHHHHHHHHHHy............lNNNNNNNNNNNNx...............,NNNNNNNNNNNn..........6eeeeeeeeeeeeeeeeeeeeeeeeeeee   ",
"   HHHHHHHHHHHHHHHHHHHHHHHHHHHD+............=NNNNNNNNNNNNN#..............bNNNNNNNNNNNg..........Oweeeeeeeeeeeeeeeeeeeeeeeeeee   ",
"   HHHHHHHHHHHHHHHHHHHHHHHHHHH7..............vNNNNNNNNNNNNf.............=NNNNNNNNNNNN#...........2eeeeeeeeeeeeeeeeeeeeeeeeeee   ",
"  HHHHHHHHHHHHHHHHHHHHHHHHHHHZ...............,NNNNNNNNNNNNv.............cNNNNNNNNNNNc.............0eeeeeeeeeeeeeeeeeeeeeeeeeee  ",
"  HHHHHHHHHHHHHHHHHHHHHHHHHHH9...............@MNNNNNNNNNNNN&...........#NNNNNNNNNNNN-.............2eeeeeeeeeeeeeeeeeeeeeeeeeee  ",
"  HHHHHHHHHHHHHHHHHHHHHHHHHHZ.................lNNNNNNNNNNNNj...........jNNNNNNNNNNNno..............qeeeeeeeeeeeeeeeeeeeeeeeeee  ",
"  HHHHHHHHHHHHHHHHHHHHHHHHHHq.................*NNNNNNNNNNNNm..........oMNNNNNNNNNNN<...............4eeeeeeeeeeeeeeeeeeeeeeeeee  ",
" HHHHHHHHHHHHHHHHHHHHHHHHHHH+..................vNNNNNNNNNNNN-.........,NNNNNNNNNNNN#...............Oeeeeeeeeeeeeeeeeeeeeeeeeeee ",
" HHHHHHHHHHHHHHHHHHHHHHHHHHs...................>NNNNNNNNNNNNl.........bNNNNNNNNNNNx.................8eeeeeeeeeeeeeeeeeeeeeeeeee ",
" HHHHHHHHHHHHHHHHHHHHHHHHHH7...................omNNNNNNNNNNNM@.......-NNNNNNNNNNNN-.................#reeeeeeeeeeeeeeeeeeeeeeeee ",
" HHHHHHHHHHHHHHHHHHHHHHHHHH+....................kNNNNNNNNNNNN,.......cNNNNNNNNNNNno.................oeeeeeeeeeeeeeeeeeeeeeeeeee ",
" HHHHHHHHHHHHHHHHHHHHHHHHHZ.....................*NNNNNNNNNNNNc......%NNNNNNNNNNNN<...................0eeeeeeeeeeeeeeeeeeeeeeeee ",
" HHHHHHHHHHHHHHHHHHHHHHHHHy......................vNNNNNNNNNNNN$.....jNNNNNNNNNNNN#...................5eeeeeeeeeeeeeeeeeeeeeeeee ",
"HHHHHHHHHHHHHHHHHHHHHHHHHH7......................>NNNNNNNNNNNNh....oMNNNNNNNNNNNx....................2reeeeeeeeeeeeeeeeeeeeeeeee",
"HHHHHHHHHHHHHHHHHHHHHHHHHH2......................omNNNNNNNNNNNb....,NNNNNNNNNNNN=....................Oeeeeeeeeeeeeeeeeeeeeeeeeee",
"HHHHHHHHHHHHJHHHHHHHHHHHHHO.......................kNNNNNNNNNNNN=...nNNNNNNNNNNNn......................eeeeeeeeeeeeeueeeeeeeeeeee",
"HHHHHHHHHJY!~~!IHHHHHHHHHA........................&NNNNNNNNNNNNk..-NNNNNNNNNNNN<......................weeeeeeeeeCT~~!Gyeeeeeeeee",
"HHHHHHHHJ!~~~~~~YHHHHHHHHB.........................cNNNNNNNNNNNmo.cNNNNNNNNNNNN#......................qeeeeeeeeG~~~~~~Tyeeeeeeee",
"HHHHHHHHE!~~~~~~~LHHHHHHHs.........................:NNNNNNNNNNNN;%NNNNNNNNNNNNx.......................8eeeeeeed~~~~~~~~Leeeeeeee",
"HHHHHHHJ!~~~~~~~~RHHHHHHHa.........................omNNNNNNNNNNNxjNNNNNNNNNNNN-.......................8eeeeeeeI~~~~~~~~~ueeeeeee",
"HHHHHHHI~~~~~~~~~!HHHHHHHu..........................kNNNNNNNNNNNMMNNNNNNNNNNNn........................4eeeeeeeE~~~~~~~~~Beeeeeee",
"HHHHHHHI~~~~~~~~~!HHHHHHHu..........................&NNNNNNNNNNNNNNNNNNNNNNNN,........................5eeeeeeeE~~~~~~~~~deeeeeee",
"HHHHHHHH~~~~~~~~~RHHHHHHHa...........................cNNNNNNNNNNNNNNNNNNNNNNN#........................8eeeeeeeI~~~~~~~~~ueeeeeee",
"HHHHHHHHR~~~~~~~~LHHHHHHHs...........................;NNNNNNNNNNNNNNNNNNNNNNx.........................8eeeeeeed~~~~~~~~Lweeeeeee",
"HHHHHHHHH!~~~~~~UHHHHHHHHB...........................omNNNNNNNNNNNNNNNNNNNNN-.........................8eeeeeeeeF~~~~~~Yteeeeeeee",
"HHHHHHHHHHT!~~!PHHHHHHHHHZ............................jNNNNNNNNNNNNNNNNNNNNn..........................0eeeeeeeeeCY~~WGueeeeeeeee",
"HHHHHHHHHHHHJHHHHHHHHHHHHHO...........................$NNNNNNNNNNNNNNNNNNNN,..........................eeeeeeeeeeeetueeeeeeeeeeee",
"HHHHHHHHHHHHHHHHHHHHHHHHHH3............................cNNNNNNNNNNNNNNNNNNMo.........................1eeeeeeeeeeeeeeeeeeeeeeeeee",
"HHHHHHHHHHHHHHHHHHHHHHHHHH7............................;NNNNNNNNNNNNNNNNNNx..........................2eeeeeeeeeeeeeeeeeeeeeeeeee",
" HHHHHHHHHHHHHHHHHHHHHHHHHu............................XmNNNNNNNNNNNNNNNNN-..........................5eeeeeeeeeeeeeeeeeeeeeeeee ",
" HHHHHHHHHHHHHHHHHHHHHHHHHZ.............................hNNNNNNNNNNNNNNNNn...........................qeeeeeeeeeeeeeeeeeeeeeeeet ",
" HHHHHHHHHHHHHHHHHHHHHHHHHH+............................$NNNNNNNNNNNNNNNN,..........................Oeeeeeeeeeeeeeeeeeeeeeeeeee ",
" HHHHHHHHHHHHHHHHHHHHHHHHHH8.............................xNNNNNNNNNNNNNNN#..........................2eeeeeeeeeeeeeeeeeeeeeeeeee ",
" HHHHHHHHHHHHHHHHHHHHHHHHHHs.............................;NNNNNNNNNNNNNNx...........................8eeeeeeeeeeeeeeeeeeeeeeeeee ",
" HHHHHHHHHHHHHHHHHHHHHHHHHHH#............................onNNNNNNNNNNNNN=..........................oeeeeeeeeeeeeeeeeeeeeeeeeeee ",
"  HHHHHHHHHHHHHHHHHHHHHHHHHHwO............................jNNNNNNNNNNNNb...........................3eeeeeeeeeeeeeeeeeeeeeeeeee  ",
"  HHHHHHHHHHHHHHHHHHHHHHHHHHZ.............................vNNNNNNNNNNNN,...........................qeeeeeeeeeeeeeeeeeeeeeeeeee  ",
"  HHHHHHHHHHHHHHHHHHHHHHHHHHH7...........................-NNNNNNNNNNNNNo..........................4eeeeeeeeeeeeeeeeeeeeeeeeeee  ",
"  HHHHHHHHHHHHHHHHHHHHHHHHHHHZ...........................lNNNNNNNNNNNNx..........................O0eeeeeeeeeeeeeeeeeeeeeeeeeee  ",
"   HHHHHHHHHHHHHHHHHHHHHHHHHHH7.........................$MNNNNNNNNNNNM=..........................2eeeeeeeeeeeeeeeeeeeeeeeeeee   ",
"   HHHHHHHHHHHHHHHHHHHHHHHHHHHS+........................hNNNNNNNNNNNNb..........................O0eeeeeeeeeeeeeeeeeeeeeeeeeee   ",
"   HHHHHHHHHHHHHHHHHHHHHHHHHHHHy.......................omNNNNNNNNNNNN,..........................5eeeeeeeeeeeeeeeeeeeeeeeeeeee   ",
"    HHHHHHHHHHHHHHHHHHHHHHHHHHHH2......................>NNNNNNNNNNNNM@.........................1eeeeeeeeeeeeeeeeeeeeeeeeeeee    ",
"    HHHHHHHHHHHHHHHHHHHHHHHHHHHHZ+.....................vNNNNNNNNNNNNl..........................0eeeeeeeeeeeeeeeeeeeeeeeeeeee    ",
"     HHHHHHHHHHHHHHHHHHHHHHHHHHHHa....................=NNNNNNNNNNNNN=.........................8eeeeeeeeeeeeeeeeeeeeeeeeeeeee    ",
"     HHHHHHHHHHHHHHHHHHHHHHHHHHHHHq...................lNNNNNNNNNNNNb.........................3eeeeeeeeeeeeeeeeeeeeeeeeeeeee     ",
"     HHHHHHHHHHHHHHHHHHHHHHHHHHHHHH7.................#MNNNNNNNNNNNN,........................2eeeeeeeeeeeeeeeeeeeeeeeeeeeeee     ",
"      HHHHHHHHHHHHHHHHHHHHHHHHHHHHHH7................hNNNNNNNNNNNNM@.......................1eeeeeeeeeeeeeeeeeeeeeeeeeeeeee      ",
"      HHHHHHHHHHHHHHHHHHHHHHHHHHHHHHH4..............onNNNNNNNNNNNMl......................O10eeeeeeeeeeeeeeeeeeeeeeeeeeeeee      ",
"       HHHHHHHHHHHHHHHHHHHHHHHHHHHHHHH7.............#,,>,,,,,,>,,,%......................2eeeeeeeeeeeeeeeeeeeeeeeeeeeeeee       ",
"       HHHHHHHHHHHHHHHHHHHHHHHHHHHHHHHH9................................................3eeeeeeeeeeeeeeeeeeeeeeeeeeeeeeee       ",
"        HHHHHHHHHHHHHHHHHHHHHHHHHHHHHHHHa+.............................................8eeeeeeeeeeeeeeeeeeeeeeeeeeeeeeee        ",
"        HHHHHHHHHHHHHHHHHIE!!YKHHHHHHHHHHA2..........................................oqweeeeeeeeepKEWUCeeeeeeeeeeeeeeeee        ",
"         HHHHHHHHHHHHHHHE~~~~~!IHHHHHHHHHHHp+......................................O5eeeeeeeeeeeC!~~~~~Ieeeeeeeeeeeeeee         ",
"          HHHHHHHHHHHHHY~~~~~~~~KHHHHHHHHHHHS7...................................O20eeeeeeeeeeep!~~~~~~~Geeeeeeeeeeeeee         ",
"          HHHHHHHHHHHHH!~~~~~~~~YHHHHHHHHHHHHHS9................................#0eeeeeeeeeeeeeK~~~~~~~~!eeeeeeeeeeeee          ",
"           HHHHHHHHHHHI~~~~~~~~~!HHHHHHHHHHHHHHHS6+..........................O40wreeeeeeeeeeeeeW~~~~~~~~~Beeeeeeeeeee           ",
"           HHHHHHHHHHHI~~~~~~~~~!HHHHHHHHHHHHHHHHee82o....................O48wreteeeeeeeeeeeeeeW~~~~~~~~~Beeeeeeeeeee           ",
"            HHHHHHHHHHL~~~~~~~~~EHHHHHHHHHHHHHHHBeeeee952+O..........OO450rweeeeeeeeeeeeeeeeeeeU~~~~~~~~~ueeeeeeeeee            ",
"             HHHHHHHHHHE~~~~~~~~IHHHHHHHHHHHHHHHrreeeerreeew99775888wweeeewreeeeeeeeeeeeeeeeeeeC~~~~~~~~Yeeeeeeeeee             ",
"              HHHHHHHHHK!~~~~~~EHHHHHHHHHHHHHHHSeeeeeeeeeeeeeeeeeeereeeeerwreeeeeeeeeeeeeeeeeeeeI~~~~~~Waeeeeeeeee              ",
"              HHHHHHHHHHKE~~~~YHHHHHHHHHHHHHHHHpeeeeeeeeeeeeeeeeeeeeeeeeeeeeeeeeeeeeeeeeeeeeeeeeeG!~~~Upeeeeeeeeee              ",
"               HHHHHHHHHHHKILHHHHHHHHHHHHHHHHHHeeeeeeeeeeeeeeeeeeeeeeeeeeeeeeeeeeeeeeeeeeeeeeeeeeetdCpeeeeeeeeeee               ",
"                HHHHHHHHHHHHHHHHHHHHHHHHHHHHHHsreeeeeeeeeeeeeeeeeeeeeeeeeeeeeeeeeeeeeeeeeeeeeeeeeeeeeeeeeeeeeeee                ",
"                 HHHHHHHHHHHHHHHHHHHHHHHHHHHHHreeeeeeeeeeeeeeeeeeeeeeeeeeeeeeeeeeeeeeeeeeeeeeeeeeeeeeeeeeeeeeee                 ",
"                  HHHHHHHHHHHHHHHHHHHHHHHHHHHAeeeeeeeeeeeeeeeeeeeeeeeeeeeeeeeeeeeeeeeeeeeeeeeeeeeeeeeeeeeeeeee                  ",
"                   HHHHHHHHHHHHHHHHHHHHHHHHHHueeeeeeeeeeeeeeeeeeeeeeeeeeeeeeeeeeeeeeeetweeeeeeeeeeeeeeeeeeeee                   ",
"                    HHHHHHHHHHHHHHHHHHHHHHHHFeeeeeeeeeeeeeeeesIEEIdeeeeeeeeeeeeeeeeeeeeeeeeeeeeeeeeeeeeeeeee                    ",
"                     HHHHHHHHHHHHHHHHHHHHHHHseeeeeeeeeeeeeeeH!~~~~~Feeeeeeeeeeeeeeeeeeeeeeeeeeeeeeeeeeeeeee                     ",
"                      HHHHHHHHHHHHHHHHHHHHHHeeeeeeeeeeeeeeeC~~~~~~~~Ceeeeeeeeeeeeeeeeeeeeeeeeeeeeeeeeeeeee                      ",
"                       HHHHHHHHHHHHHHHHHHHHCeeeeeeeeeeeeeeeT~~~~~~~~Teeeeeeeeeeeeeeeeeeeeeeeeeeeeeeeeeeee                       ",
"                         HHHHHHHHHHHHHHHHHHyeeeeeeeeeeeeeet~~~~~~~~~~eeeeeeeeeeeeeeeeeeeeeeeeeeeeeeeeee                         ",
"                          HHHHHHHHHHHHHHHHSeeeeeeeeeeeeeeeu~~~~~~~~~!ueeeeeeeeeeeeeeeeeeeeeeeeeeeeeeee                          ",
"                           HHHHHHHHHHHHHHHpeeeeeeeeeeeeeeeeW~~~~~~~~Weeeeeeeeeeeeeeeeeeeeeeeeeeeeeeee                           ",
"                             HHHHHHHHHHHHHeeeeeeeeeeeeeeeeeJ~~~~~~~~Geeeeeeeeeeeeeeeeeeeeeeeeeeeeee                             ",
"                              HHHHHHHHHHHBeeeeeeeeeeeeeeeeetT~~~~~~Tueeeeeeeeeeeeeeeeeeeeeeeeeeeee                              ",
"                                HHHHHHHHHreeeeeeeeeeeeeeeeeeeL~~~~Kueeeeeeeeeeeeeeeeeeeeeeeeeeee                                ",
"                                  JJHHHHDeeeeeeeeeeeeeeeeeeeeeuBBueeeeeeeeeeeeeeeeeeeeeeeeeeee                                  ",
"                                    HHHHpeeeeeeeeeeeeeeeeeeeeeeeeeeeeeeeeeeeeeeeeeeeeeeeeeee                                    ",
"                                      HHeeeeeeeeeeeeeeeeeeeeeeeeweeeeeeeeeeeeeeeeeeeeeeeee                                      ",
"                                        eeeeeeeeeeeeeeeeeeeeeeeeeeeeeeeeeeeeeeeeeeeeeee                                         ",
"                                           eeeeeeeeeeeeeeeeeeeeeeeeeeeeeeeeeeeeeeeeee                                           ",
"                                              eeeeeeeeeeeeeeeeeeeeeeeeeeeeeeeeeeee                                              ",
"                                                  eeeeeeeeeeeeeeeeeeeeeeeeeeee                                                  ",
"                                                        eeeeeeeeeeeeeete                                                        "
};
