<?xml version="1.0" encoding="utf-8"?>
<svg viewBox="0 0 512 512" height="512.0pt" width="512.0pt" version="1.1" xmlns="http://www.w3.org/2000/svg">
  <path d="M 246.24 0.00 L 267.04 0.00 L 267.82 0.09 C 297.51 1.72 326.83 8.09 354.26 19.63 C 341.30 51.17 328.26 82.69 315.10 114.15 C 292.01 104.59 266.89 100.80 242.00 103.06 C 215.31 105.42 189.36 115.00 167.50 130.48 C 139.85 149.92 118.95 178.64 109.12 210.99 C 102.30 233.17 100.71 256.96 104.27 279.88 C 108.75 308.96 121.90 336.57 141.60 358.43 C 156.93 375.63 176.17 389.15 197.43 398.02 C 196.16 401.77 194.53 405.35 193.04 409.01 C 182.59 434.24 172.13 459.47 161.68 484.70 C 160.52 487.35 159.37 489.97 158.65 492.78 C 121.74 477.50 88.47 453.90 62.45 423.54 C 37.58 394.82 19.27 360.52 9.22 323.89 C 3.84 304.92 1.09 285.42 0.00 265.76 L 0.00 244.95 C 0.27 242.64 0.47 240.33 0.58 238.00 C 5.03 173.51 34.79 111.19 82.64 67.64 C 112.62 39.91 149.61 19.68 189.00 8.97 C 207.69 3.76 226.88 1.08 246.24 0.00 Z" fill="#939598"/>
  <path d="M 354.26 19.63 C 385.99 32.73 415.10 52.35 439.04 76.97 C 469.23 107.86 491.37 146.45 502.77 188.12 C 508.22 207.39 510.99 227.21 512.00 247.19 L 512.00 267.05 C 511.68 269.71 511.47 272.34 511.33 275.01 C 508.27 316.61 494.76 357.26 472.56 392.56 C 443.35 439.24 398.57 475.72 347.08 495.17 C 321.06 505.23 293.58 510.53 265.75 512.00 L 247.82 512.00 C 216.97 510.84 187.22 504.45 158.65 492.78 C 159.37 489.97 160.52 487.35 161.68 484.70 C 172.13 459.47 182.59 434.24 193.04 409.01 C 194.53 405.35 196.16 401.77 197.43 398.02 C 231.71 412.20 271.03 413.34 306.08 401.23 C 330.89 392.67 353.53 377.59 370.87 357.90 C 390.75 335.64 403.77 307.53 408.03 278.00 C 411.79 250.70 408.53 222.54 397.86 197.08 C 382.50 159.88 352.24 129.62 315.10 114.15 C 328.26 82.69 341.30 51.17 354.26 19.63 Z" fill="#636466"/>
  <path d="M 250.45 31.48 C 254.50 30.47 259.06 30.50 263.00 31.96 C 271.60 35.10 277.28 43.83 276.33 53.00 C 275.62 63.36 266.44 71.89 256.00 71.52 C 245.21 71.93 235.79 62.72 235.59 52.00 C 235.04 42.64 241.51 34.00 250.45 31.48 Z" fill="#c0c0c0"/>
  <path d="M 106.16 91.34 C 109.35 90.60 112.73 90.60 115.94 91.27 C 125.22 93.46 132.24 102.34 131.51 112.00 C 131.43 122.88 121.86 131.96 111.00 131.52 C 99.97 131.88 90.39 121.95 90.78 111.00 C 90.66 101.83 97.30 93.52 106.16 91.34 Z" fill="#c0c0c0"/>
  <path d="M 395.39 91.43 C 399.22 90.42 403.37 90.50 407.14 91.71 C 416.11 94.59 422.14 103.58 421.19 113.00 C 420.44 122.94 411.94 131.15 402.01 131.63 C 392.24 132.24 383.17 125.55 380.93 116.01 C 378.18 105.40 384.89 94.27 395.39 91.43 Z" fill="#c0c0c0"/>
  <path d="M 242.00 103.06 C 266.89 100.80 292.01 104.59 315.10 114.15 C 352.24 129.62 382.50 159.88 397.86 197.08 C 408.53 222.54 411.79 250.70 408.03 278.00 C 403.77 307.53 390.75 335.64 370.87 357.90 C 353.53 377.59 330.89 392.67 306.08 401.23 C 271.03 413.34 231.71 412.20 197.43 398.02 C 176.17 389.15 156.93 375.63 141.60 358.43 C 121.90 336.57 108.75 308.96 104.27 279.88 C 100.71 256.96 102.30 233.17 109.12 210.99 C 118.95 178.64 139.85 149.92 167.50 130.48 C 189.36 115.00 215.31 105.42 242.00 103.06 Z" fill="#333333"/>
  <path d="M 175.40 168.61 C 193.29 168.51 211.20 168.45 229.09 168.63 C 238.51 194.26 247.91 219.90 257.34 245.52 C 258.13 247.67 258.79 250.03 259.93 252.02 L 260.62 251.86 C 271.22 227.61 281.79 202.61 292.34 178.25 C 293.58 175.55 294.47 172.57 296.06 170.06 C 298.01 169.78 300.04 169.83 302.00 169.84 C 316.39 169.97 330.79 169.72 345.18 169.97 C 343.94 174.23 342.01 178.21 340.43 182.39 C 315.27 244.90 290.27 307.51 265.03 369.98 C 246.89 370.02 228.74 370.01 210.59 369.98 C 211.68 366.45 213.33 363.23 214.71 359.82 C 220.90 345.29 227.09 330.64 233.30 316.16 C 234.44 314.03 232.83 311.93 232.16 309.92 C 213.49 263.90 195.01 217.77 176.33 171.76 C 175.98 170.72 175.68 169.67 175.40 168.61 Z" fill="#9aca3c"/>
  <path d="M 45.29 236.39 C 49.45 235.23 54.01 235.31 58.10 236.73 C 66.47 239.68 72.21 248.08 71.51 257.00 C 71.37 267.81 61.74 276.73 51.00 276.41 C 40.43 276.55 31.06 267.57 30.80 257.00 C 30.14 247.75 36.48 239.02 45.29 236.39 Z" fill="#c0c0c0"/>
  <path d="M 454.47 236.51 C 458.50 235.24 462.85 235.23 466.90 236.43 C 475.64 239.08 481.81 247.86 481.23 257.00 C 480.87 266.52 473.45 274.80 464.02 276.19 C 453.71 277.98 443.43 271.12 440.94 261.01 C 438.23 250.69 444.35 239.76 454.47 236.51 Z" fill="#c0c0c0"/>
  <path d="M 397.47 380.60 C 409.02 378.56 420.31 387.32 421.19 399.00 C 422.36 410.32 413.36 420.73 402.00 421.24 C 390.90 422.03 380.90 413.10 380.37 402.01 C 379.72 391.65 387.23 382.26 397.47 380.60 Z" fill="#c0c0c0"/>
  <path d="M 104.45 381.47 C 110.91 379.52 118.09 380.31 123.54 384.47 C 131.88 390.53 134.01 402.93 128.58 411.58 C 124.60 417.90 117.51 421.75 110.00 421.19 C 99.45 420.83 90.64 411.55 90.78 401.00 C 90.47 392.33 96.38 384.33 104.45 381.47 Z" fill="#c0c0c0"/>
  <path d="M 252.48 440.61 C 256.37 439.99 260.38 440.37 264.00 441.96 C 272.55 445.50 277.76 454.87 276.19 464.02 C 274.74 473.80 265.91 481.38 256.00 481.26 C 245.40 481.43 236.01 472.60 235.57 462.00 C 234.83 451.73 242.39 442.34 252.48 440.61 Z" fill="#c0c0c0"/>
</svg>